<mxfile host="app.diagrams.net" agent="Mozilla/5.0 (Windows NT 10.0; Win64; x64; rv:138.0) Gecko/20100101 Firefox/138.0" version="27.0.9">
  <diagram id="LnQA7NeD5pWyeA027Ttc" name="Page-1">
    <mxGraphModel dx="1025" dy="471" grid="1" gridSize="10" guides="1" tooltips="1" connect="1" arrows="1" fold="1" page="1" pageScale="1" pageWidth="3300" pageHeight="4681" math="0" shadow="0">
      <root>
        <mxCell id="0" />
        <mxCell id="1" parent="0" />
        <mxCell id="ckfWc3geHlRKN2jMbvU5-89" style="edgeStyle=orthogonalEdgeStyle;rounded=0;orthogonalLoop=1;jettySize=auto;html=1;exitX=1;exitY=0.5;exitDx=0;exitDy=0;entryX=0;entryY=0.5;entryDx=0;entryDy=0;" edge="1" parent="1" source="ckfWc3geHlRKN2jMbvU5-87" target="ckfWc3geHlRKN2jMbvU5-88">
          <mxGeometry relative="1" as="geometry" />
        </mxCell>
        <mxCell id="ckfWc3geHlRKN2jMbvU5-87" value="data&#xa;Raw&#xa;Mammographic" style="rectangle;fillColor=#fff2cc;strokeColor=#d6b656;" name="data" vertex="1" parent="1">
          <mxGeometry x="460" y="230" width="100" height="50" as="geometry" />
        </mxCell>
        <mxCell id="ckfWc3geHlRKN2jMbvU5-91" style="edgeStyle=orthogonalEdgeStyle;rounded=0;orthogonalLoop=1;jettySize=auto;html=1;exitX=1;exitY=0.5;exitDx=0;exitDy=0;entryX=0.5;entryY=0;entryDx=0;entryDy=0;" edge="1" parent="1" source="ckfWc3geHlRKN2jMbvU5-88" target="ckfWc3geHlRKN2jMbvU5-90">
          <mxGeometry relative="1" as="geometry" />
        </mxCell>
        <mxCell id="ckfWc3geHlRKN2jMbvU5-88" value="transform" style="rounded=1;whiteSpace=wrap;html=1;arcSize=50;fillColor=#f8cecc;strokeColor=#b85450;" name="transform" vertex="1" parent="1">
          <mxGeometry x="640" y="230" width="100" height="50" as="geometry" />
        </mxCell>
        <mxCell id="ckfWc3geHlRKN2jMbvU5-93" style="edgeStyle=orthogonalEdgeStyle;rounded=0;orthogonalLoop=1;jettySize=auto;html=1;exitX=0.5;exitY=1;exitDx=0;exitDy=0;entryX=1;entryY=0.5;entryDx=0;entryDy=0;" edge="1" parent="1" source="ckfWc3geHlRKN2jMbvU5-90" target="ckfWc3geHlRKN2jMbvU5-92">
          <mxGeometry relative="1" as="geometry" />
        </mxCell>
        <mxCell id="ckfWc3geHlRKN2jMbvU5-90" value="data&#xa;Pre-processed&#xa;Data" style="rectangle;fillColor=#fff2cc;strokeColor=#d6b656;" name="data" vertex="1" parent="1">
          <mxGeometry x="820" y="330" width="100" height="50" as="geometry" />
        </mxCell>
        <mxCell id="ckfWc3geHlRKN2jMbvU5-95" style="edgeStyle=orthogonalEdgeStyle;rounded=0;orthogonalLoop=1;jettySize=auto;html=1;exitX=0;exitY=0.5;exitDx=0;exitDy=0;entryX=0.5;entryY=0;entryDx=0;entryDy=0;" edge="1" parent="1" source="ckfWc3geHlRKN2jMbvU5-92" target="ckfWc3geHlRKN2jMbvU5-94">
          <mxGeometry relative="1" as="geometry" />
        </mxCell>
        <mxCell id="ckfWc3geHlRKN2jMbvU5-92" value="infer:deduce" style="rounded=1;whiteSpace=wrap;html=1;arcSize=50;fillColor=#bac8d3;strokeColor=#23445d;" name="infer:deduce" vertex="1" parent="1">
          <mxGeometry x="640" y="430" width="100" height="50" as="geometry" />
        </mxCell>
        <mxCell id="ckfWc3geHlRKN2jMbvU5-97" style="edgeStyle=orthogonalEdgeStyle;rounded=0;orthogonalLoop=1;jettySize=auto;html=1;exitX=0.5;exitY=1;exitDx=0;exitDy=0;entryX=0;entryY=0.5;entryDx=0;entryDy=0;" edge="1" parent="1" source="ckfWc3geHlRKN2jMbvU5-94" target="ckfWc3geHlRKN2jMbvU5-96">
          <mxGeometry relative="1" as="geometry" />
        </mxCell>
        <mxCell id="ckfWc3geHlRKN2jMbvU5-94" value="data&#xa;Features" style="rectangle;fillColor=#fff2cc;strokeColor=#d6b656;" name="data" vertex="1" parent="1">
          <mxGeometry x="460" y="530" width="100" height="50" as="geometry" />
        </mxCell>
        <mxCell id="ckfWc3geHlRKN2jMbvU5-99" style="edgeStyle=orthogonalEdgeStyle;rounded=0;orthogonalLoop=1;jettySize=auto;html=1;exitX=1;exitY=0.5;exitDx=0;exitDy=0;entryX=0;entryY=0.5;entryDx=0;entryDy=0;" edge="1" parent="1" source="ckfWc3geHlRKN2jMbvU5-96" target="ckfWc3geHlRKN2jMbvU5-98">
          <mxGeometry relative="1" as="geometry" />
        </mxCell>
        <mxCell id="ckfWc3geHlRKN2jMbvU5-96" value="generate:engineer" style="rounded=1;whiteSpace=wrap;html=1;arcSize=50;fillColor=#e1d5e7;strokeColor=#9673a6;" name="generate:engineer" vertex="1" parent="1">
          <mxGeometry x="640" y="630" width="100" height="50" as="geometry" />
        </mxCell>
        <mxCell id="ckfWc3geHlRKN2jMbvU5-98" value="model:hybrid&#xa;ANFIS Framework" style="shape=hexagon;perimeter=hexagonPerimeter2;fillColor=#b0e3e6;strokeColor=#0e8088;" name="model" vertex="1" parent="1">
          <mxGeometry x="810" y="630" width="120" height="50" as="geometry" />
        </mxCell>
      </root>
    </mxGraphModel>
  </diagram>
</mxfile>
